{
    "asset" : {
        "generator" : "Khronos glTF Blender I/O v1.1.46",
        "version" : "2.0"
    },
    "scene" : 0,
    "scenes" : [
        {
            "name" : "Scene",
            "nodes" : [
                0
            ]
        }
    ],
    "nodes" : [
        {
            "mesh" : 0,
            "name" : "Level-col",
            "rotation" : [
                0.7071067690849304,
                0,
                0,
                0.7071067690849304
            ],
            "translation" : [
                22.136369705200195,
                2.0069830417633057,
                13.637930870056152
            ]
        }
    ],
    "materials" : [
        {
            "doubleSided" : true,
            "emissiveFactor" : [
                0,
                0,
                0
            ],
            "name" : "material.001",
            "pbrMetallicRoughness" : {
                "baseColorTexture" : {
                    "index" : 0,
                    "texCoord" : 0
                },
                "metallicFactor" : 0,
                "roughnessFactor" : 0.5
            }
        },
        {
            "doubleSided" : true,
            "emissiveFactor" : [
                0,
                0,
                0
            ],
            "name" : "Color_M01.001",
            "pbrMetallicRoughness" : {
                "baseColorTexture" : {
                    "index" : 1,
                    "texCoord" : 0
                },
                "metallicFactor" : 0,
                "roughnessFactor" : 1
            }
        },
        {
            "doubleSided" : true,
            "emissiveFactor" : [
                0,
                0,
                0
            ],
            "name" : "material",
            "pbrMetallicRoughness" : {
                "baseColorTexture" : {
                    "index" : 2,
                    "texCoord" : 0
                },
                "metallicFactor" : 0,
                "roughnessFactor" : 1
            }
        },
        {
            "doubleSided" : true,
            "emissiveFactor" : [
                0,
                0,
                0
            ],
            "name" : "Color_A08.003",
            "pbrMetallicRoughness" : {
                "baseColorTexture" : {
                    "index" : 3,
                    "texCoord" : 0
                },
                "metallicFactor" : 0,
                "roughnessFactor" : 1
            }
        },
        {
            "doubleSided" : true,
            "emissiveFactor" : [
                0,
                0,
                0
            ],
            "name" : "Color_A02.001",
            "pbrMetallicRoughness" : {
                "baseColorTexture" : {
                    "index" : 4,
                    "texCoord" : 0
                },
                "metallicFactor" : 0,
                "roughnessFactor" : 0.5
            }
        },
        {
            "doubleSided" : true,
            "emissiveFactor" : [
                0,
                0,
                0
            ],
            "name" : "Color_C03.001",
            "pbrMetallicRoughness" : {
                "baseColorTexture" : {
                    "index" : 5,
                    "texCoord" : 0
                },
                "metallicFactor" : 0,
                "roughnessFactor" : 0.5
            }
        }
    ],
    "meshes" : [
        {
            "name" : "ID3.001",
            "primitives" : [
                {
                    "attributes" : {
                        "POSITION" : 0,
                        "NORMAL" : 1,
                        "TEXCOORD_0" : 2
                    },
                    "indices" : 3,
                    "material" : 0
                },
                {
                    "attributes" : {
                        "POSITION" : 4,
                        "NORMAL" : 5,
                        "TEXCOORD_0" : 6
                    },
                    "indices" : 7,
                    "material" : 1
                },
                {
                    "attributes" : {
                        "POSITION" : 8,
                        "NORMAL" : 9,
                        "TEXCOORD_0" : 10
                    },
                    "indices" : 11,
                    "material" : 2
                },
                {
                    "attributes" : {
                        "POSITION" : 12,
                        "NORMAL" : 13,
                        "TEXCOORD_0" : 14
                    },
                    "indices" : 15,
                    "material" : 3
                },
                {
                    "attributes" : {
                        "POSITION" : 16,
                        "NORMAL" : 17,
                        "TEXCOORD_0" : 18
                    },
                    "indices" : 19,
                    "material" : 4
                },
                {
                    "attributes" : {
                        "POSITION" : 20,
                        "NORMAL" : 21,
                        "TEXCOORD_0" : 22
                    },
                    "indices" : 23,
                    "material" : 5
                }
            ]
        }
    ],
    "textures" : [
        {
            "source" : 0
        },
        {
            "source" : 1
        },
        {
            "source" : 2
        },
        {
            "source" : 2
        },
        {
            "source" : 3
        },
        {
            "source" : 4
        }
    ],
    "images" : [
        {
            "bufferView" : 4,
            "mimeType" : "image/png",
            "name" : "Barrel-Texture"
        },
        {
            "bufferView" : 9,
            "mimeType" : "image/png",
            "name" : "Concrete Floor Texture"
        },
        {
            "bufferView" : 14,
            "mimeType" : "image/png",
            "name" : "Shed Corrugated Texture"
        },
        {
            "bufferView" : 23,
            "mimeType" : "image/png",
            "name" : "Pole Texture"
        },
        {
            "bufferView" : 28,
            "mimeType" : "image/png",
            "name" : "Chainlink-Fence"
        }
    ],
    "accessors" : [
        {
            "bufferView" : 0,
            "componentType" : 5126,
            "count" : 36,
            "max" : [
                0.3999999463558197,
                0.34641027450561523,
                1.5142072484763958e-08
            ],
            "min" : [
                -0.3999999463558197,
                -0.3464103043079376,
                -0.8999999165534973
            ],
            "type" : "VEC3"
        },
        {
            "bufferView" : 1,
            "componentType" : 5126,
            "count" : 36,
            "type" : "VEC3"
        },
        {
            "bufferView" : 2,
            "componentType" : 5126,
            "count" : 36,
            "type" : "VEC2"
        },
        {
            "bufferView" : 3,
            "componentType" : 5123,
            "count" : 60,
            "type" : "SCALAR"
        },
        {
            "bufferView" : 5,
            "componentType" : 5126,
            "count" : 160,
            "max" : [
                10.863632202148438,
                4.862067699432373,
                2.006984233856201
            ],
            "min" : [
                -14.136367797851562,
                -15.137932777404785,
                0.0069828033447265625
            ],
            "type" : "VEC3"
        },
        {
            "bufferView" : 6,
            "componentType" : 5126,
            "count" : 160,
            "type" : "VEC3"
        },
        {
            "bufferView" : 7,
            "componentType" : 5126,
            "count" : 160,
            "type" : "VEC2"
        },
        {
            "bufferView" : 8,
            "componentType" : 5123,
            "count" : 240,
            "type" : "SCALAR"
        },
        {
            "bufferView" : 10,
            "componentType" : 5126,
            "count" : 28,
            "max" : [
                -6.535563945770264,
                2.659956932067871,
                0.006982823368161917
            ],
            "min" : [
                -10.105949401855469,
                -3.589383363723755,
                -3.0551578998565674
            ],
            "type" : "VEC3"
        },
        {
            "bufferView" : 11,
            "componentType" : 5126,
            "count" : 28,
            "type" : "VEC3"
        },
        {
            "bufferView" : 12,
            "componentType" : 5126,
            "count" : 28,
            "type" : "VEC2"
        },
        {
            "bufferView" : 13,
            "componentType" : 5123,
            "count" : 54,
            "type" : "SCALAR"
        },
        {
            "bufferView" : 15,
            "componentType" : 5126,
            "count" : 42,
            "max" : [
                3.624633312225342,
                -5.137933731079102,
                0.006983633153140545
            ],
            "min" : [
                -10.697366714477539,
                -13.937931060791016,
                -6.194019317626953
            ],
            "type" : "VEC3"
        },
        {
            "bufferView" : 16,
            "componentType" : 5126,
            "count" : 42,
            "type" : "VEC3"
        },
        {
            "bufferView" : 17,
            "componentType" : 5126,
            "count" : 42,
            "type" : "VEC2"
        },
        {
            "bufferView" : 18,
            "componentType" : 5123,
            "count" : 78,
            "type" : "SCALAR"
        },
        {
            "bufferView" : 19,
            "componentType" : 5126,
            "count" : 720,
            "max" : [
                5.863629341125488,
                4.862067222595215,
                0.006984435487538576
            ],
            "min" : [
                -14.136367797851562,
                -15.197933197021484,
                -2.493016481399536
            ],
            "type" : "VEC3"
        },
        {
            "bufferView" : 20,
            "componentType" : 5126,
            "count" : 720,
            "type" : "VEC3"
        },
        {
            "bufferView" : 21,
            "componentType" : 5126,
            "count" : 720,
            "type" : "VEC2"
        },
        {
            "bufferView" : 22,
            "componentType" : 5123,
            "count" : 1080,
            "type" : "SCALAR"
        },
        {
            "bufferView" : 24,
            "componentType" : 5126,
            "count" : 120,
            "max" : [
                5.863635063171387,
                4.802067756652832,
                0.006984435487538576
            ],
            "min" : [
                -14.076367378234863,
                -15.197933197021484,
                -2.3930165767669678
            ],
            "type" : "VEC3"
        },
        {
            "bufferView" : 25,
            "componentType" : 5126,
            "count" : 120,
            "type" : "VEC3"
        },
        {
            "bufferView" : 26,
            "componentType" : 5126,
            "count" : 120,
            "type" : "VEC2"
        },
        {
            "bufferView" : 27,
            "componentType" : 5123,
            "count" : 180,
            "type" : "SCALAR"
        }
    ],
    "bufferViews" : [
        {
            "buffer" : 0,
            "byteLength" : 432,
            "byteOffset" : 0
        },
        {
            "buffer" : 0,
            "byteLength" : 432,
            "byteOffset" : 432
        },
        {
            "buffer" : 0,
            "byteLength" : 288,
            "byteOffset" : 864
        },
        {
            "buffer" : 0,
            "byteLength" : 120,
            "byteOffset" : 1152
        },
        {
            "buffer" : 0,
            "byteLength" : 4664,
            "byteOffset" : 1272
        },
        {
            "buffer" : 0,
            "byteLength" : 1920,
            "byteOffset" : 5936
        },
        {
            "buffer" : 0,
            "byteLength" : 1920,
            "byteOffset" : 7856
        },
        {
            "buffer" : 0,
            "byteLength" : 1280,
            "byteOffset" : 9776
        },
        {
            "buffer" : 0,
            "byteLength" : 480,
            "byteOffset" : 11056
        },
        {
            "buffer" : 0,
            "byteLength" : 7945,
            "byteOffset" : 11536
        },
        {
            "buffer" : 0,
            "byteLength" : 336,
            "byteOffset" : 19484
        },
        {
            "buffer" : 0,
            "byteLength" : 336,
            "byteOffset" : 19820
        },
        {
            "buffer" : 0,
            "byteLength" : 224,
            "byteOffset" : 20156
        },
        {
            "buffer" : 0,
            "byteLength" : 108,
            "byteOffset" : 20380
        },
        {
            "buffer" : 0,
            "byteLength" : 15832,
            "byteOffset" : 20488
        },
        {
            "buffer" : 0,
            "byteLength" : 504,
            "byteOffset" : 36320
        },
        {
            "buffer" : 0,
            "byteLength" : 504,
            "byteOffset" : 36824
        },
        {
            "buffer" : 0,
            "byteLength" : 336,
            "byteOffset" : 37328
        },
        {
            "buffer" : 0,
            "byteLength" : 156,
            "byteOffset" : 37664
        },
        {
            "buffer" : 0,
            "byteLength" : 8640,
            "byteOffset" : 37820
        },
        {
            "buffer" : 0,
            "byteLength" : 8640,
            "byteOffset" : 46460
        },
        {
            "buffer" : 0,
            "byteLength" : 5760,
            "byteOffset" : 55100
        },
        {
            "buffer" : 0,
            "byteLength" : 2160,
            "byteOffset" : 60860
        },
        {
            "buffer" : 0,
            "byteLength" : 7829,
            "byteOffset" : 63020
        },
        {
            "buffer" : 0,
            "byteLength" : 1440,
            "byteOffset" : 70852
        },
        {
            "buffer" : 0,
            "byteLength" : 1440,
            "byteOffset" : 72292
        },
        {
            "buffer" : 0,
            "byteLength" : 960,
            "byteOffset" : 73732
        },
        {
            "buffer" : 0,
            "byteLength" : 360,
            "byteOffset" : 74692
        },
        {
            "buffer" : 0,
            "byteLength" : 14074,
            "byteOffset" : 75052
        }
    ],
    "buffers" : [
        {
            "byteLength" : 89128,
            "uri" : "data:application/octet-stream;base64,"
        }
    ]
}
