{
    "asset" : {
        "generator" : "Khronos glTF Blender I/O v1.1.46",
        "version" : "2.0"
    },
    "scene" : 0,
    "scenes" : [
        {
            "name" : "Scene",
            "nodes" : [
                6
            ]
        }
    ],
    "nodes" : [
        {
            "name" : "Bone.002",
            "rotation" : [
                -0.5101602673530579,
                0.4593155086040497,
                0.4377804696559906,
                0.580615222454071
            ],
            "scale" : [
                0.9999999403953552,
                1.0000001192092896,
                0.9999999403953552
            ],
            "translation" : [
                -1.1363106011685886e-08,
                0.8731153607368469,
                -9.311296622627196e-09
            ]
        },
        {
            "children" : [
                0
            ],
            "name" : "Bone.001",
            "rotation" : [
                0.05865980312228203,
                0.00012579956091940403,
                -0.06239505484700203,
                0.996326208114624
            ],
            "scale" : [
                1.0000001192092896,
                1,
                0.9999999403953552
            ],
            "translation" : [
                1.949956640601158e-09,
                0.7140794992446899,
                -5.711626727133989e-10
            ]
        },
        {
            "children" : [
                1
            ],
            "name" : "Bone",
            "rotation" : [
                0.7067269086837769,
                0.005279378965497017,
                -0.7053886651992798,
                0.054186854511499405
            ],
            "scale" : [
                1.0000001192092896,
                1.0000004768371582,
                1.000000238418579
            ],
            "translation" : [
                -0.013320726342499256,
                -3.3640397134604427e-09,
                -0.0006514810957014561
            ]
        },
        {
            "name" : "Bone.003",
            "rotation" : [
                -0.5125828385353088,
                -0.5185495018959045,
                0.4943549931049347,
                0.47326356172561646
            ],
            "scale" : [
                0.9999999403953552,
                0.9999999403953552,
                1
            ],
            "translation" : [
                0.017621349543333054,
                -1.5811201333999634,
                -1.2041020625019883e-07
            ]
        },
        {
            "name" : "Bone.004",
            "rotation" : [
                0.5268481373786926,
                -0.5033590793609619,
                -0.48362964391708374,
                0.4849361181259155
            ],
            "scale" : [
                0.9999887943267822,
                0.9999999403953552,
                0.9999984502792358
            ],
            "translation" : [
                -0.053674664348363876,
                -0.67041015625,
                0.7605139017105103
            ]
        },
        {
            "mesh" : 0,
            "name" : "PoliceOfficer",
            "skin" : 0
        },
        {
            "children" : [
                5,
                2,
                3,
                4
            ],
            "name" : "Armature",
            "translation" : [
                0.13453036546707153,
                1.6456283330917358,
                -0.04170587658882141
            ]
        }
    ],
    "animations" : [
        {
            "channels" : [
                {
                    "sampler" : 0,
                    "target" : {
                        "node" : 2,
                        "path" : "translation"
                    }
                },
                {
                    "sampler" : 1,
                    "target" : {
                        "node" : 2,
                        "path" : "rotation"
                    }
                },
                {
                    "sampler" : 2,
                    "target" : {
                        "node" : 2,
                        "path" : "scale"
                    }
                },
                {
                    "sampler" : 3,
                    "target" : {
                        "node" : 1,
                        "path" : "translation"
                    }
                },
                {
                    "sampler" : 4,
                    "target" : {
                        "node" : 1,
                        "path" : "rotation"
                    }
                },
                {
                    "sampler" : 5,
                    "target" : {
                        "node" : 1,
                        "path" : "scale"
                    }
                },
                {
                    "sampler" : 6,
                    "target" : {
                        "node" : 0,
                        "path" : "translation"
                    }
                },
                {
                    "sampler" : 7,
                    "target" : {
                        "node" : 0,
                        "path" : "rotation"
                    }
                },
                {
                    "sampler" : 8,
                    "target" : {
                        "node" : 0,
                        "path" : "scale"
                    }
                },
                {
                    "sampler" : 9,
                    "target" : {
                        "node" : 3,
                        "path" : "translation"
                    }
                },
                {
                    "sampler" : 10,
                    "target" : {
                        "node" : 3,
                        "path" : "rotation"
                    }
                },
                {
                    "sampler" : 11,
                    "target" : {
                        "node" : 3,
                        "path" : "scale"
                    }
                },
                {
                    "sampler" : 12,
                    "target" : {
                        "node" : 4,
                        "path" : "translation"
                    }
                },
                {
                    "sampler" : 13,
                    "target" : {
                        "node" : 4,
                        "path" : "rotation"
                    }
                },
                {
                    "sampler" : 14,
                    "target" : {
                        "node" : 4,
                        "path" : "scale"
                    }
                }
            ],
            "name" : "Kick",
            "samplers" : [
                {
                    "input" : 7,
                    "interpolation" : "LINEAR",
                    "output" : 8
                },
                {
                    "input" : 7,
                    "interpolation" : "LINEAR",
                    "output" : 9
                },
                {
                    "input" : 7,
                    "interpolation" : "LINEAR",
                    "output" : 10
                },
                {
                    "input" : 7,
                    "interpolation" : "LINEAR",
                    "output" : 11
                },
                {
                    "input" : 7,
                    "interpolation" : "LINEAR",
                    "output" : 12
                },
                {
                    "input" : 7,
                    "interpolation" : "LINEAR",
                    "output" : 13
                },
                {
                    "input" : 7,
                    "interpolation" : "LINEAR",
                    "output" : 14
                },
                {
                    "input" : 7,
                    "interpolation" : "LINEAR",
                    "output" : 15
                },
                {
                    "input" : 7,
                    "interpolation" : "LINEAR",
                    "output" : 16
                },
                {
                    "input" : 7,
                    "interpolation" : "LINEAR",
                    "output" : 17
                },
                {
                    "input" : 7,
                    "interpolation" : "LINEAR",
                    "output" : 18
                },
                {
                    "input" : 7,
                    "interpolation" : "LINEAR",
                    "output" : 19
                },
                {
                    "input" : 7,
                    "interpolation" : "LINEAR",
                    "output" : 20
                },
                {
                    "input" : 7,
                    "interpolation" : "LINEAR",
                    "output" : 21
                },
                {
                    "input" : 7,
                    "interpolation" : "LINEAR",
                    "output" : 22
                }
            ]
        }
    ],
    "materials" : [
        {
            "doubleSided" : true,
            "name" : "Body_",
            "pbrMetallicRoughness" : {}
        }
    ],
    "meshes" : [
        {
            "name" : "Cube",
            "primitives" : [
                {
                    "attributes" : {
                        "POSITION" : 0,
                        "NORMAL" : 1,
                        "TEXCOORD_0" : 2,
                        "JOINTS_0" : 3,
                        "WEIGHTS_0" : 4
                    },
                    "indices" : 5,
                    "material" : 0
                }
            ]
        }
    ],
    "skins" : [
        {
            "inverseBindMatrices" : 6,
            "joints" : [
                2,
                1,
                0,
                3,
                4
            ],
            "name" : "Armature"
        }
    ],
    "accessors" : [
        {
            "bufferView" : 0,
            "componentType" : 5126,
            "count" : 166,
            "max" : [
                0.29261836409568787,
                1.7282620668411255,
                0.33292636275291443
            ],
            "min" : [
                -0.020042676478624344,
                -0.005030155181884766,
                -0.15216423571109772
            ],
            "type" : "VEC3"
        },
        {
            "bufferView" : 1,
            "componentType" : 5126,
            "count" : 166,
            "type" : "VEC3"
        },
        {
            "bufferView" : 2,
            "componentType" : 5126,
            "count" : 166,
            "type" : "VEC2"
        },
        {
            "bufferView" : 3,
            "componentType" : 5123,
            "count" : 166,
            "type" : "VEC4"
        },
        {
            "bufferView" : 4,
            "componentType" : 5126,
            "count" : 166,
            "type" : "VEC4"
        },
        {
            "bufferView" : 5,
            "componentType" : 5123,
            "count" : 240,
            "type" : "SCALAR"
        },
        {
            "bufferView" : 6,
            "componentType" : 5126,
            "count" : 5,
            "type" : "MAT4"
        },
        {
            "bufferView" : 7,
            "componentType" : 5126,
            "count" : 25,
            "max" : [
                1.0416666666666667
            ],
            "min" : [
                0.041666666666666664
            ],
            "type" : "SCALAR"
        },
        {
            "bufferView" : 8,
            "componentType" : 5126,
            "count" : 25,
            "type" : "VEC3"
        },
        {
            "bufferView" : 9,
            "componentType" : 5126,
            "count" : 25,
            "type" : "VEC4"
        },
        {
            "bufferView" : 10,
            "componentType" : 5126,
            "count" : 25,
            "type" : "VEC3"
        },
        {
            "bufferView" : 11,
            "componentType" : 5126,
            "count" : 25,
            "type" : "VEC3"
        },
        {
            "bufferView" : 12,
            "componentType" : 5126,
            "count" : 25,
            "type" : "VEC4"
        },
        {
            "bufferView" : 13,
            "componentType" : 5126,
            "count" : 25,
            "type" : "VEC3"
        },
        {
            "bufferView" : 14,
            "componentType" : 5126,
            "count" : 25,
            "type" : "VEC3"
        },
        {
            "bufferView" : 15,
            "componentType" : 5126,
            "count" : 25,
            "type" : "VEC4"
        },
        {
            "bufferView" : 16,
            "componentType" : 5126,
            "count" : 25,
            "type" : "VEC3"
        },
        {
            "bufferView" : 17,
            "componentType" : 5126,
            "count" : 25,
            "type" : "VEC3"
        },
        {
            "bufferView" : 18,
            "componentType" : 5126,
            "count" : 25,
            "type" : "VEC4"
        },
        {
            "bufferView" : 19,
            "componentType" : 5126,
            "count" : 25,
            "type" : "VEC3"
        },
        {
            "bufferView" : 20,
            "componentType" : 5126,
            "count" : 25,
            "type" : "VEC3"
        },
        {
            "bufferView" : 21,
            "componentType" : 5126,
            "count" : 25,
            "type" : "VEC4"
        },
        {
            "bufferView" : 22,
            "componentType" : 5126,
            "count" : 25,
            "type" : "VEC3"
        }
    ],
    "bufferViews" : [
        {
            "buffer" : 0,
            "byteLength" : 1992,
            "byteOffset" : 0
        },
        {
            "buffer" : 0,
            "byteLength" : 1992,
            "byteOffset" : 1992
        },
        {
            "buffer" : 0,
            "byteLength" : 1328,
            "byteOffset" : 3984
        },
        {
            "buffer" : 0,
            "byteLength" : 1328,
            "byteOffset" : 5312
        },
        {
            "buffer" : 0,
            "byteLength" : 2656,
            "byteOffset" : 6640
        },
        {
            "buffer" : 0,
            "byteLength" : 480,
            "byteOffset" : 9296
        },
        {
            "buffer" : 0,
            "byteLength" : 320,
            "byteOffset" : 9776
        },
        {
            "buffer" : 0,
            "byteLength" : 100,
            "byteOffset" : 10096
        },
        {
            "buffer" : 0,
            "byteLength" : 300,
            "byteOffset" : 10196
        },
        {
            "buffer" : 0,
            "byteLength" : 400,
            "byteOffset" : 10496
        },
        {
            "buffer" : 0,
            "byteLength" : 300,
            "byteOffset" : 10896
        },
        {
            "buffer" : 0,
            "byteLength" : 300,
            "byteOffset" : 11196
        },
        {
            "buffer" : 0,
            "byteLength" : 400,
            "byteOffset" : 11496
        },
        {
            "buffer" : 0,
            "byteLength" : 300,
            "byteOffset" : 11896
        },
        {
            "buffer" : 0,
            "byteLength" : 300,
            "byteOffset" : 12196
        },
        {
            "buffer" : 0,
            "byteLength" : 400,
            "byteOffset" : 12496
        },
        {
            "buffer" : 0,
            "byteLength" : 300,
            "byteOffset" : 12896
        },
        {
            "buffer" : 0,
            "byteLength" : 300,
            "byteOffset" : 13196
        },
        {
            "buffer" : 0,
            "byteLength" : 400,
            "byteOffset" : 13496
        },
        {
            "buffer" : 0,
            "byteLength" : 300,
            "byteOffset" : 13896
        },
        {
            "buffer" : 0,
            "byteLength" : 300,
            "byteOffset" : 14196
        },
        {
            "buffer" : 0,
            "byteLength" : 400,
            "byteOffset" : 14496
        },
        {
            "buffer" : 0,
            "byteLength" : 300,
            "byteOffset" : 14896
        }
    ],
    "buffers" : [
        {
            "byteLength" : 15196,
            "uri" : "data:application/octet-stream;base64,"
        }
    ]
}
